<svg width="66" height="22" viewBox="0 0 66 22" fill="none" xmlns="http://www.w3.org/2000/svg">
<path fill-rule="evenodd" clip-rule="evenodd" d="M6.66667 7.66675H13.3333C13.7933 7.66675 14.1667 7.29425 14.1667 6.83341V3.50008C14.1667 3.03925 13.7933 2.66675 13.3333 2.66675H6.66667C6.20667 2.66675 5.83333 3.03925 5.83333 3.50008V6.83341C5.83333 7.29425 6.20667 7.66675 6.66667 7.66675ZM15 6.83342V4.33341C16.3783 4.33341 17.5 5.45508 17.5 6.83342V16.8334C17.5 18.2117 16.3783 19.3334 15 19.3334H5C3.62167 19.3334 2.5 18.2117 2.5 16.8334V6.83342C2.5 5.45508 3.62167 4.33341 5 4.33341V6.83342C5 7.75258 5.7475 8.50008 6.66667 8.50008H13.3333C14.2525 8.50008 15 7.75258 15 6.83342Z" fill="#100F0D"/>
<mask id="mask0_261_365" style="mask-type:luminance" maskUnits="userSpaceOnUse" x="2" y="2" width="16" height="18">
<path fill-rule="evenodd" clip-rule="evenodd" d="M6.66667 7.66675H13.3333C13.7933 7.66675 14.1667 7.29425 14.1667 6.83341V3.50008C14.1667 3.03925 13.7933 2.66675 13.3333 2.66675H6.66667C6.20667 2.66675 5.83333 3.03925 5.83333 3.50008V6.83341C5.83333 7.29425 6.20667 7.66675 6.66667 7.66675ZM15 6.83342V4.33341C16.3783 4.33341 17.5 5.45508 17.5 6.83342V16.8334C17.5 18.2117 16.3783 19.3334 15 19.3334H5C3.62167 19.3334 2.5 18.2117 2.5 16.8334V6.83342C2.5 5.45508 3.62167 4.33341 5 4.33341V6.83342C5 7.75258 5.7475 8.50008 6.66667 8.50008H13.3333C14.2525 8.50008 15 7.75258 15 6.83342Z" fill="white"/>
</mask>
<g mask="url(#mask0_261_365)">
<rect y="1" width="20" height="20" fill="#100F0D"/>
</g>
<path d="M30.763 17.17C29.7203 17.17 28.8533 16.9773 28.162 16.592C27.482 16.2067 26.9663 15.6683 26.615 14.977C26.2637 14.2857 26.071 13.481 26.037 12.563C26.0257 12.0983 26.02 11.5997 26.02 11.067C26.02 10.5343 26.0257 10.0243 26.037 9.537C26.071 8.619 26.2637 7.81433 26.615 7.123C26.9663 6.43167 27.482 5.89333 28.162 5.508C28.8533 5.12267 29.7203 4.93 30.763 4.93C31.545 4.93 32.2307 5.03767 32.82 5.253C33.4093 5.46833 33.8967 5.75733 34.282 6.12C34.6787 6.48267 34.979 6.89067 35.183 7.344C35.387 7.786 35.5003 8.245 35.523 8.721C35.5343 8.823 35.5003 8.908 35.421 8.976C35.353 9.044 35.268 9.078 35.166 9.078H34.231C34.129 9.078 34.0383 9.04967 33.959 8.993C33.891 8.93633 33.84 8.83433 33.806 8.687C33.6133 7.803 33.2507 7.19667 32.718 6.868C32.1967 6.53933 31.5393 6.375 30.746 6.375C29.8393 6.375 29.1197 6.63567 28.587 7.157C28.0543 7.667 27.7653 8.48867 27.72 9.622C27.686 10.5513 27.686 11.5033 27.72 12.478C27.7653 13.6113 28.0543 14.4387 28.587 14.96C29.1197 15.47 29.8393 15.725 30.746 15.725C31.5393 15.725 32.1967 15.5607 32.718 15.232C33.2507 14.9033 33.6133 14.297 33.806 13.413C33.84 13.2657 33.891 13.1637 33.959 13.107C34.0383 13.0503 34.129 13.022 34.231 13.022H35.166C35.268 13.022 35.353 13.056 35.421 13.124C35.5003 13.192 35.5343 13.277 35.523 13.379C35.5003 13.855 35.387 14.3197 35.183 14.773C34.979 15.215 34.6787 15.6173 34.282 15.98C33.8967 16.3427 33.4093 16.6317 32.82 16.847C32.2307 17.0623 31.545 17.17 30.763 17.17ZM41.2013 17.17C40.3399 17.17 39.6203 17.0057 39.0423 16.677C38.4643 16.3483 38.0223 15.895 37.7163 15.317C37.4103 14.7277 37.2403 14.059 37.2063 13.311C37.1949 13.1183 37.1893 12.8747 37.1893 12.58C37.1893 12.274 37.1949 12.0303 37.2063 11.849C37.2403 11.0897 37.4103 10.421 37.7163 9.843C38.0336 9.265 38.4813 8.81167 39.0593 8.483C39.6373 8.15433 40.3513 7.99 41.2013 7.99C42.0513 7.99 42.7653 8.15433 43.3433 8.483C43.9213 8.81167 44.3633 9.265 44.6693 9.843C44.9866 10.421 45.1623 11.0897 45.1963 11.849C45.2076 12.0303 45.2133 12.274 45.2133 12.58C45.2133 12.8747 45.2076 13.1183 45.1963 13.311C45.1623 14.059 44.9923 14.7277 44.6863 15.317C44.3803 15.895 43.9383 16.3483 43.3603 16.677C42.7823 17.0057 42.0626 17.17 41.2013 17.17ZM41.2013 15.861C41.9039 15.861 42.4649 15.64 42.8843 15.198C43.3036 14.7447 43.5303 14.0873 43.5643 13.226C43.5756 13.056 43.5813 12.8407 43.5813 12.58C43.5813 12.3193 43.5756 12.104 43.5643 11.934C43.5303 11.0727 43.3036 10.421 42.8843 9.979C42.4649 9.52567 41.9039 9.299 41.2013 9.299C40.4986 9.299 39.9319 9.52567 39.5013 9.979C39.0819 10.421 38.8609 11.0727 38.8383 11.934C38.8269 12.104 38.8213 12.3193 38.8213 12.58C38.8213 12.8407 38.8269 13.056 38.8383 13.226C38.8609 14.0873 39.0819 14.7447 39.5013 15.198C39.9319 15.64 40.4986 15.861 41.2013 15.861ZM47.75 20.23C47.6367 20.23 47.5403 20.1903 47.461 20.111C47.393 20.043 47.359 19.9523 47.359 19.839V8.551C47.359 8.43767 47.393 8.347 47.461 8.279C47.5403 8.19967 47.6367 8.16 47.75 8.16H48.532C48.6453 8.16 48.736 8.19967 48.804 8.279C48.8833 8.347 48.923 8.43767 48.923 8.551V9.299C49.195 8.925 49.5577 8.61333 50.011 8.364C50.4643 8.11467 51.031 7.99 51.711 7.99C52.3457 7.99 52.884 8.09767 53.326 8.313C53.7793 8.52833 54.1477 8.823 54.431 9.197C54.7257 9.571 54.9467 9.996 55.094 10.472C55.2413 10.948 55.3207 11.458 55.332 12.002C55.3433 12.1833 55.349 12.376 55.349 12.58C55.349 12.784 55.3433 12.9767 55.332 13.158C55.3207 13.6907 55.2413 14.2007 55.094 14.688C54.9467 15.164 54.7257 15.589 54.431 15.963C54.1477 16.3257 53.7793 16.6203 53.326 16.847C52.884 17.0623 52.3457 17.17 51.711 17.17C51.0537 17.17 50.4983 17.051 50.045 16.813C49.603 16.5637 49.2403 16.2577 48.957 15.895V19.839C48.957 19.9523 48.923 20.043 48.855 20.111C48.787 20.1903 48.6907 20.23 48.566 20.23H47.75ZM51.354 15.793C51.9433 15.793 52.4023 15.6683 52.731 15.419C53.071 15.1583 53.3147 14.824 53.462 14.416C53.6093 13.9967 53.6943 13.549 53.717 13.073C53.7283 12.7443 53.7283 12.4157 53.717 12.087C53.6943 11.611 53.6093 11.169 53.462 10.761C53.3147 10.3417 53.071 10.0073 52.731 9.758C52.4023 9.49733 51.9433 9.367 51.354 9.367C50.7987 9.367 50.3453 9.49733 49.994 9.758C49.654 10.0187 49.399 10.353 49.229 10.761C49.0703 11.1577 48.9797 11.5657 48.957 11.985C48.9457 12.1663 48.94 12.3817 48.94 12.631C48.94 12.8803 48.9457 13.1013 48.957 13.294C48.9683 13.6907 49.059 14.0817 49.229 14.467C49.4103 14.8523 49.6767 15.1697 50.028 15.419C50.3793 15.6683 50.8213 15.793 51.354 15.793ZM58.6839 20.23C58.5932 20.23 58.5139 20.196 58.4459 20.128C58.3779 20.06 58.3439 19.9807 58.3439 19.89C58.3439 19.8447 58.3496 19.7993 58.3609 19.754C58.3722 19.7087 58.3949 19.652 58.4289 19.584L59.7379 16.473L56.4909 8.806C56.4342 8.67 56.4059 8.57367 56.4059 8.517C56.4059 8.415 56.4399 8.33 56.5079 8.262C56.5759 8.194 56.6609 8.16 56.7629 8.16H57.5959C57.7092 8.16 57.7999 8.18833 57.8679 8.245C57.9359 8.30167 57.9812 8.36967 58.0039 8.449L60.5879 14.637L63.2399 8.449C63.2739 8.36967 63.3192 8.30167 63.3759 8.245C63.4439 8.18833 63.5402 8.16 63.6649 8.16H64.4639C64.5659 8.16 64.6509 8.194 64.7189 8.262C64.7869 8.33 64.8209 8.40933 64.8209 8.5C64.8209 8.55667 64.7926 8.65867 64.7359 8.806L59.9079 19.941C59.8739 20.0203 59.8229 20.0883 59.7549 20.145C59.6982 20.2017 59.6076 20.23 59.4829 20.23H58.6839Z" fill="#100F0D"/>
</svg>
