<svg width="32" height="32" viewBox="0 0 32 32" fill="none" xmlns="http://www.w3.org/2000/svg">
<path fill-rule="evenodd" clip-rule="evenodd" d="M12.6047 5.68036L27.5789 13.1629C29.9182 14.3318 29.9182 17.668 27.5789 18.8369L12.6047 26.3195C9.94144 27.6503 7.07578 24.9136 8.28511 22.1943L10.4669 17.2881C10.509 17.1935 10.5463 17.0973 10.5786 16.9999L16 16.9999C16.5523 16.9999 17 16.5522 17 15.9999C17 15.4476 16.5523 14.9999 16 14.9999L10.5786 14.9999C10.5463 14.9025 10.509 14.8063 10.4669 14.7117L8.28511 9.80558C7.07578 7.08624 9.94145 4.34953 12.6047 5.68036ZM1.66669 13.3333C1.66669 12.781 2.1144 12.3333 2.66669 12.3333H5.33335C5.88564 12.3333 6.33335 12.781 6.33335 13.3333C6.33335 13.8855 5.88564 14.3333 5.33335 14.3333H2.66669C2.1144 14.3333 1.66669 13.8855 1.66669 13.3333ZM2.66669 17.6666C2.1144 17.6666 1.66669 18.1143 1.66669 18.6666C1.66669 19.2189 2.1144 19.6666 2.66669 19.6666H5.33335C5.88564 19.6666 6.33335 19.2189 6.33335 18.6666C6.33335 18.1143 5.88564 17.6666 5.33335 17.6666H2.66669Z" fill="#A6A39D"/>
</svg>
