<svg width="18" height="16" viewBox="0 0 18 16" fill="none" xmlns="http://www.w3.org/2000/svg">
<path d="M11.6597 10.6616L16.2153 14.7906" stroke="#1A1A1A" stroke-width="2" stroke-linecap="round"/>
<path d="M7.24702 12.324C8.48257 12.324 9.69034 11.992 10.7177 11.3698C11.745 10.7477 12.5457 9.86337 13.0185 8.82878C13.4913 7.79418 13.6151 6.65572 13.374 5.5574C13.133 4.45907 12.538 3.45023 11.6643 2.65838C10.7907 1.86653 9.67752 1.32726 8.46572 1.10879C7.25392 0.890324 5.99787 1.00246 4.85638 1.431C3.71488 1.85955 2.73922 2.58525 2.05279 3.51637C1.36635 4.44748 1 5.54217 1 6.66201C1 8.16367 1.65813 9.60381 2.82968 10.6656C4.00122 11.7275 5.59021 12.324 7.24702 12.324Z" stroke="#1A1A1A" stroke-width="2"/>
</svg>
