<svg width="22" height="20" viewBox="0 0 22 20" fill="none" xmlns="http://www.w3.org/2000/svg">
<path d="M21.8544 11.6747L20.7294 2.67469C20.6501 2.03983 20.3417 1.45579 19.8621 1.03232C19.3825 0.608843 18.7648 0.375095 18.125 0.375H2C1.50272 0.375 1.02581 0.572544 0.674175 0.924175C0.322544 1.27581 0.125 1.75272 0.125 2.25V10.5C0.125 10.7462 0.173498 10.99 0.267726 11.2175C0.361953 11.445 0.500065 11.6517 0.674175 11.8258C0.848285 11.9999 1.05498 12.138 1.28247 12.2323C1.50995 12.3265 1.75377 12.375 2 12.375H5.80438L9.24406 19.2534C9.33752 19.4402 9.48112 19.5973 9.65878 19.707C9.83644 19.8168 10.0412 19.875 10.25 19.875C11.3436 19.8738 12.3921 19.4388 13.1654 18.6654C13.9388 17.8921 14.3738 16.8436 14.375 15.75V14.625H19.25C19.6222 14.6249 19.99 14.5458 20.3293 14.3927C20.6685 14.2396 20.9713 14.0162 21.2176 13.7372C21.4638 13.4582 21.648 13.13 21.7578 12.7744C21.8676 12.4188 21.9005 12.044 21.8544 11.6747ZM5.375 10.125H2.375V2.625H5.375V10.125ZM19.5312 12.2484C19.496 12.2883 19.4527 12.3202 19.4042 12.342C19.3557 12.3638 19.3032 12.375 19.25 12.375H13.25C12.9516 12.375 12.6655 12.4935 12.4545 12.7045C12.2435 12.9155 12.125 13.2016 12.125 13.5V15.75C12.125 16.1351 12.0064 16.5109 11.7853 16.8262C11.5642 17.1416 11.2514 17.3812 10.8894 17.5125L7.625 10.9847V2.625H18.125C18.2168 2.62428 18.3058 2.65729 18.3749 2.71777C18.444 2.77825 18.4885 2.862 18.5 2.95312L19.625 11.9531C19.6313 12.0062 19.6262 12.06 19.6101 12.1109C19.5939 12.1618 19.567 12.2087 19.5312 12.2484Z" fill="#100F0D"/>
</svg>
