<svg width="99" height="99" viewBox="0 0 99 99" fill="none" xmlns="http://www.w3.org/2000/svg">
<path d="M50.9249 0C50.3054 0 49.6859 0.49562 49.3141 1.11514L37.6671 23.5419C37.4193 24.1615 36.7998 24.6571 36.0563 24.6571H18.5857C8.30163 24.6571 0 32.9587 0 43.2428V97.8849C0 98.5044 0.49562 99 1.11514 99H97.8849C98.5044 99 99 98.5044 99 97.8849V25.8961C99 25.1527 98.5044 24.781 97.8849 24.781H87.8486C87.229 24.781 86.6095 24.2854 86.2378 23.6658L74.5907 1.23905C74.219 0.619524 73.7234 0.123905 72.98 0.123905H50.5532L50.9249 0ZM18.8335 37.1715C22.3029 37.1715 25.0288 39.8974 25.0288 43.3667C25.0288 46.836 22.3029 49.562 18.8335 49.562C15.3642 49.562 12.6383 46.836 12.6383 43.3667C12.6383 39.8974 15.3642 37.1715 18.8335 37.1715ZM62.2003 37.1715C75.8298 37.1715 86.9812 48.3229 86.9812 61.9524C86.9812 75.582 75.8298 86.7334 62.2003 86.7334C48.5707 86.7334 37.4193 75.582 37.4193 61.9524C37.4193 48.3229 48.5707 37.1715 62.2003 37.1715ZM62.2003 49.562C55.3855 49.562 49.8098 55.1377 49.8098 61.9524C49.8098 68.7672 55.3855 74.3429 62.2003 74.3429C69.015 74.3429 74.5907 68.7672 74.5907 61.9524C74.5907 55.1377 69.015 49.562 62.2003 49.562Z" fill="black"/>
</svg>
