<svg width="32" height="32" viewBox="0 0 32 32" fill="none" xmlns="http://www.w3.org/2000/svg">
<path fill-rule="evenodd" clip-rule="evenodd" d="M5.26437 8H26.735C27.431 8 28.0004 8.56933 28.0004 9.26533V9.40133C28.0004 10.0973 27.431 10.6667 26.735 10.6667H5.26437C4.56837 10.6667 4.00037 10.0973 4.00037 9.40133V9.26533C4.00037 8.56933 4.56837 8 5.26437 8ZM26.735 14.6667H5.26437C4.56837 14.6667 4.00037 15.236 4.00037 15.932V16.068C4.00037 16.764 4.56837 17.3333 5.26437 17.3333H26.735C27.431 17.3333 28.0004 16.764 28.0004 16.068V15.932C28.0004 15.236 27.431 14.6667 26.735 14.6667ZM26.735 21.3333H5.26437C4.56837 21.3333 4.00037 21.9027 4.00037 22.5987V22.7347C4.00037 23.4307 4.56837 24 5.26437 24H26.735C27.431 24 28.0004 23.4307 28.0004 22.7347V22.5987C28.0004 21.9027 27.431 21.3333 26.735 21.3333Z" fill="#100F0D"/>
<mask id="mask0_268_237" style="mask-type:luminance" maskUnits="userSpaceOnUse" x="4" y="8" width="25" height="16">
<path fill-rule="evenodd" clip-rule="evenodd" d="M5.26437 8H26.735C27.431 8 28.0004 8.56933 28.0004 9.26533V9.40133C28.0004 10.0973 27.431 10.6667 26.735 10.6667H5.26437C4.56837 10.6667 4.00037 10.0973 4.00037 9.40133V9.26533C4.00037 8.56933 4.56837 8 5.26437 8ZM26.735 14.6667H5.26437C4.56837 14.6667 4.00037 15.236 4.00037 15.932V16.068C4.00037 16.764 4.56837 17.3333 5.26437 17.3333H26.735C27.431 17.3333 28.0004 16.764 28.0004 16.068V15.932C28.0004 15.236 27.431 14.6667 26.735 14.6667ZM26.735 21.3333H5.26437C4.56837 21.3333 4.00037 21.9027 4.00037 22.5987V22.7347C4.00037 23.4307 4.56837 24 5.26437 24H26.735C27.431 24 28.0004 23.4307 28.0004 22.7347V22.5987C28.0004 21.9027 27.431 21.3333 26.735 21.3333Z" fill="white"/>
</mask>
<g mask="url(#mask0_268_237)">
<rect width="32" height="32" fill="#100F0D"/>
</g>
</svg>
