<svg width="32" height="32" viewBox="0 0 32 32" fill="none" xmlns="http://www.w3.org/2000/svg">
<path fill-rule="evenodd" clip-rule="evenodd" d="M29.3334 16.0001C29.3334 20.0179 27.5562 23.6207 24.7451 26.0652C22.4041 28.1009 19.346 29.3334 16 29.3334C12.654 29.3334 9.59594 28.1009 7.25491 26.0652C4.44382 23.6207 2.66669 20.0179 2.66669 16.0001C2.66669 8.63628 8.63622 2.66675 16 2.66675C23.3638 2.66675 29.3334 8.63628 29.3334 16.0001ZM20 12.0001C20 9.79094 18.2092 8.00008 16 8.00008C13.7909 8.00008 12 9.79094 12 12.0001C12 14.2092 13.7909 16.0001 16 16.0001C18.2092 16.0001 20 14.2092 20 12.0001ZM16 18.6667C18.2837 18.6667 19.7854 19.8889 20.8443 21.2474C21.6343 22.2609 21.3624 23.7477 20.2163 24.329C18.9499 24.9714 17.5172 25.3334 16 25.3334C14.4828 25.3334 13.0502 24.9714 11.7837 24.329C10.6376 23.7477 10.3657 22.2609 11.1558 21.2474C12.2146 19.8889 13.7164 18.6667 16 18.6667Z" fill="#100F0D"/>
</svg>
